<?xml version="1.0" encoding="utf-8"?>
<svg version="1.1" id="Layer_1" xmlns="http://www.w3.org/2000/svg" xmlns:xlink="http://www.w3.org/1999/xlink" x="0px" y="0px"
	 viewBox="0 0 18 18" style="enable-background:new 0 0 18 18;" xml:space="preserve">
<style type="text/css">
	.st0{fill:#FE9903;}
</style>
<path class="st0" d="M9.8,3.3C9.5,3.1,9.3,3,9,3S8.5,3.1,8.2,3.3C8,3.5,7.9,3.8,7.9,4.1S8,4.6,8.2,4.8l3.1,3.1H4.1
	C3.8,7.9,3.5,8,3.3,8.2C3.1,8.5,3,8.7,3,9c0,0.3,0.1,0.5,0.3,0.8c0.2,0.2,0.5,0.3,0.8,0.3h7.3l-3.1,3.1c-0.2,0.2-0.3,0.5-0.3,0.8
	c0,0.3,0.1,0.5,0.3,0.8C8.5,14.9,8.7,15,9,15c0.3,0,0.5-0.1,0.8-0.3l4.9-4.9C14.9,9.5,15,9.3,15,9s-0.1-0.5-0.3-0.8L9.8,3.3z"/>
</svg>
